<svg width="20" height="16" viewBox="0 0 20 16" fill="none" xmlns="http://www.w3.org/2000/svg">
<path d="M9.91119 15.9873V13.8125L15.208 8.38813L17.3317 10.563L12.0349 15.9873H9.91119ZM0.916626 10.87V8.8231H7.9124V10.87H0.916626ZM18.0313 9.84656L15.9076 7.67171L16.6321 6.9297C16.8154 6.74207 17.0486 6.64825 17.3317 6.64825C17.6149 6.64825 17.8481 6.74207 18.0313 6.9297L18.7559 7.67171C18.9391 7.85934 19.0307 8.09815 19.0307 8.38813C19.0307 8.67811 18.9391 8.91692 18.7559 9.10455L18.0313 9.84656ZM0.916626 6.77619V4.72927H11.91V6.77619H0.916626ZM0.916626 2.68235V0.635437H11.91V2.68235H0.916626Z" fill="#0E34C1"/>
</svg>
